<svg xmlns="http://www.w3.org/2000/svg" xmlns:xlink="http://www.w3.org/1999/xlink" width="512" zoomAndPan="magnify" viewBox="0 0 384 383.999986" height="512" preserveAspectRatio="xMidYMid meet" version="1.0"><defs><g/><clipPath id="id1"><path d="M 11.882812 11.882812 L 371.882812 11.882812 L 371.882812 371.882812 L 11.882812 371.882812 Z M 11.882812 11.882812 " clip-rule="nonzero"/></clipPath></defs><g clip-path="url(#id1)"><path fill="#003087" d="M 191.882812 11.882812 C 92.472656 11.882812 11.882812 92.472656 11.882812 191.882812 C 11.882812 291.292969 92.472656 371.882812 191.882812 371.882812 C 291.292969 371.882812 371.882812 291.292969 371.882812 191.882812 C 371.882812 92.472656 291.292969 11.882812 191.882812 11.882812 " fill-opacity="1" fill-rule="nonzero"/></g><g fill="#ffffff" fill-opacity="1"><g transform="translate(71.240928, 279.894344)"><g><path d="M 108.6875 -24.15625 C 109.488281 -20.9375 109.890625 -16.910156 109.890625 -12.078125 C 109.890625 -7.441406 109.488281 -3.414062 108.6875 0 L 84.53125 0 C 83.726562 -3.414062 83.328125 -7.441406 83.328125 -12.078125 C 83.328125 -16.910156 83.726562 -20.9375 84.53125 -24.15625 L 75.484375 -24.15625 C 74.671875 -27.570312 74.265625 -31.597656 74.265625 -36.234375 C 74.265625 -41.054688 74.671875 -45.082031 75.484375 -48.3125 L 66.421875 -48.3125 C 65.617188 -51.726562 65.21875 -55.75 65.21875 -60.375 C 65.21875 -65.207031 65.617188 -69.234375 66.421875 -72.453125 L 36.234375 -72.453125 C 37.035156 -69.234375 37.4375 -65.207031 37.4375 -60.375 C 37.4375 -55.75 37.035156 -51.726562 36.234375 -48.3125 C 37.035156 -45.082031 37.4375 -41.054688 37.4375 -36.234375 C 37.4375 -31.597656 37.035156 -27.570312 36.234375 -24.15625 C 37.035156 -20.9375 37.4375 -16.910156 37.4375 -12.078125 C 37.4375 -7.441406 37.035156 -3.414062 36.234375 0 L 12.078125 0 C 11.273438 -3.414062 10.875 -7.441406 10.875 -12.078125 C 10.875 -16.910156 11.273438 -20.9375 12.078125 -24.15625 C 11.273438 -27.570312 10.875 -31.597656 10.875 -36.234375 C 10.875 -41.054688 11.273438 -45.082031 12.078125 -48.3125 C 11.273438 -51.726562 10.875 -55.75 10.875 -60.375 C 10.875 -65.207031 11.273438 -69.234375 12.078125 -72.453125 C 11.273438 -75.878906 10.875 -79.90625 10.875 -84.53125 C 10.875 -89.363281 11.273438 -93.390625 12.078125 -96.609375 C 11.273438 -100.035156 10.875 -104.0625 10.875 -108.6875 C 10.875 -113.519531 11.273438 -117.546875 12.078125 -120.765625 C 11.273438 -124.179688 10.875 -128.207031 10.875 -132.84375 C 10.875 -137.664062 11.273438 -141.691406 12.078125 -144.921875 C 11.273438 -148.335938 10.875 -152.359375 10.875 -156.984375 C 10.875 -161.816406 11.273438 -165.84375 12.078125 -169.0625 L 96.609375 -169.0625 C 97.410156 -165.84375 97.8125 -161.816406 97.8125 -156.984375 C 97.8125 -152.359375 97.410156 -148.335938 96.609375 -144.921875 L 108.6875 -144.921875 C 109.488281 -141.691406 109.890625 -137.664062 109.890625 -132.84375 C 109.890625 -128.207031 109.488281 -124.179688 108.6875 -120.765625 L 102.640625 -120.765625 C 103.453125 -117.546875 103.859375 -113.519531 103.859375 -108.6875 C 103.859375 -104.0625 103.453125 -100.035156 102.640625 -96.609375 L 84.53125 -96.609375 C 85.332031 -93.390625 85.734375 -89.363281 85.734375 -84.53125 C 85.734375 -79.90625 85.332031 -75.878906 84.53125 -72.453125 L 90.578125 -72.453125 C 91.378906 -69.234375 91.78125 -65.207031 91.78125 -60.375 C 91.78125 -55.75 91.378906 -51.726562 90.578125 -48.3125 L 99.625 -48.3125 C 100.4375 -45.082031 100.84375 -41.054688 100.84375 -36.234375 C 100.84375 -31.597656 100.4375 -27.570312 99.625 -24.15625 Z M 78.5 -96.609375 C 77.6875 -100.035156 77.28125 -104.0625 77.28125 -108.6875 C 77.28125 -113.519531 77.6875 -117.546875 78.5 -120.765625 C 77.6875 -124.179688 77.28125 -128.207031 77.28125 -132.84375 C 77.28125 -137.664062 77.6875 -141.691406 78.5 -144.921875 L 36.234375 -144.921875 C 37.035156 -141.691406 37.4375 -137.664062 37.4375 -132.84375 C 37.4375 -128.207031 37.035156 -124.179688 36.234375 -120.765625 C 37.035156 -117.546875 37.4375 -113.519531 37.4375 -108.6875 C 37.4375 -104.0625 37.035156 -100.035156 36.234375 -96.609375 Z M 78.5 -96.609375 "/></g></g></g><g fill="#ffffff" fill-opacity="1"><g transform="translate(191.993916, 279.894344)"><g><path d="M 108.6875 -144.921875 C 109.488281 -141.691406 109.890625 -137.664062 109.890625 -132.84375 C 109.890625 -128.207031 109.488281 -124.179688 108.6875 -120.765625 C 109.488281 -117.546875 109.890625 -113.519531 109.890625 -108.6875 C 109.890625 -104.0625 109.488281 -100.035156 108.6875 -96.609375 C 109.488281 -93.390625 109.890625 -89.363281 109.890625 -84.53125 C 109.890625 -79.90625 109.488281 -75.878906 108.6875 -72.453125 C 109.488281 -69.234375 109.890625 -65.207031 109.890625 -60.375 C 109.890625 -55.75 109.488281 -51.726562 108.6875 -48.3125 C 109.488281 -45.082031 109.890625 -41.054688 109.890625 -36.234375 C 109.890625 -31.597656 109.488281 -27.570312 108.6875 -24.15625 C 109.488281 -20.9375 109.890625 -16.910156 109.890625 -12.078125 C 109.890625 -7.441406 109.488281 -3.414062 108.6875 0 L 84.53125 0 C 83.726562 -3.414062 83.328125 -7.441406 83.328125 -12.078125 C 83.328125 -16.910156 83.726562 -20.9375 84.53125 -24.15625 C 83.726562 -27.570312 83.328125 -31.597656 83.328125 -36.234375 C 83.328125 -41.054688 83.726562 -45.082031 84.53125 -48.3125 C 83.726562 -51.726562 83.328125 -55.75 83.328125 -60.375 C 83.328125 -65.207031 83.726562 -69.234375 84.53125 -72.453125 C 83.726562 -75.878906 83.328125 -79.90625 83.328125 -84.53125 C 83.328125 -89.363281 83.726562 -93.390625 84.53125 -96.609375 C 83.726562 -100.035156 83.328125 -104.0625 83.328125 -108.6875 C 83.328125 -113.519531 83.726562 -117.546875 84.53125 -120.765625 L 75.484375 -120.765625 C 76.285156 -117.546875 76.6875 -113.519531 76.6875 -108.6875 C 76.6875 -104.0625 76.285156 -100.035156 75.484375 -96.609375 C 76.285156 -93.390625 76.6875 -89.363281 76.6875 -84.53125 C 76.6875 -79.90625 76.285156 -75.878906 75.484375 -72.453125 L 69.4375 -72.453125 C 70.238281 -69.234375 70.640625 -65.207031 70.640625 -60.375 C 70.640625 -55.75 70.238281 -51.726562 69.4375 -48.3125 C 70.238281 -45.082031 70.640625 -41.054688 70.640625 -36.234375 C 70.640625 -31.597656 70.238281 -27.570312 69.4375 -24.15625 L 51.328125 -24.15625 C 50.515625 -27.570312 50.109375 -31.597656 50.109375 -36.234375 C 50.109375 -41.054688 50.515625 -45.082031 51.328125 -48.3125 C 50.515625 -51.726562 50.109375 -55.75 50.109375 -60.375 C 50.109375 -65.207031 50.515625 -69.234375 51.328125 -72.453125 L 45.28125 -72.453125 C 44.476562 -75.878906 44.078125 -79.90625 44.078125 -84.53125 C 44.078125 -89.363281 44.476562 -93.390625 45.28125 -96.609375 C 44.476562 -100.035156 44.078125 -104.0625 44.078125 -108.6875 C 44.078125 -113.519531 44.476562 -117.546875 45.28125 -120.765625 L 36.234375 -120.765625 C 37.035156 -117.546875 37.4375 -113.519531 37.4375 -108.6875 C 37.4375 -104.0625 37.035156 -100.035156 36.234375 -96.609375 C 37.035156 -93.390625 37.4375 -89.363281 37.4375 -84.53125 C 37.4375 -79.90625 37.035156 -75.878906 36.234375 -72.453125 C 37.035156 -69.234375 37.4375 -65.207031 37.4375 -60.375 C 37.4375 -55.75 37.035156 -51.726562 36.234375 -48.3125 C 37.035156 -45.082031 37.4375 -41.054688 37.4375 -36.234375 C 37.4375 -31.597656 37.035156 -27.570312 36.234375 -24.15625 C 37.035156 -20.9375 37.4375 -16.910156 37.4375 -12.078125 C 37.4375 -7.441406 37.035156 -3.414062 36.234375 0 L 12.078125 0 C 11.273438 -3.414062 10.875 -7.441406 10.875 -12.078125 C 10.875 -16.910156 11.273438 -20.9375 12.078125 -24.15625 C 11.273438 -27.570312 10.875 -31.597656 10.875 -36.234375 C 10.875 -41.054688 11.273438 -45.082031 12.078125 -48.3125 C 11.273438 -51.726562 10.875 -55.75 10.875 -60.375 C 10.875 -65.207031 11.273438 -69.234375 12.078125 -72.453125 C 11.273438 -75.878906 10.875 -79.90625 10.875 -84.53125 C 10.875 -89.363281 11.273438 -93.390625 12.078125 -96.609375 C 11.273438 -100.035156 10.875 -104.0625 10.875 -108.6875 C 10.875 -113.519531 11.273438 -117.546875 12.078125 -120.765625 C 11.273438 -124.179688 10.875 -128.207031 10.875 -132.84375 C 10.875 -137.664062 11.273438 -141.691406 12.078125 -144.921875 C 11.273438 -148.335938 10.875 -152.359375 10.875 -156.984375 C 10.875 -161.816406 11.273438 -165.84375 12.078125 -169.0625 L 42.265625 -169.0625 C 43.066406 -165.84375 43.46875 -161.816406 43.46875 -156.984375 C 43.46875 -152.359375 43.066406 -148.335938 42.265625 -144.921875 L 51.328125 -144.921875 C 52.128906 -141.691406 52.53125 -137.664062 52.53125 -132.84375 C 52.53125 -128.207031 52.128906 -124.179688 51.328125 -120.765625 L 55.859375 -120.765625 C 56.660156 -117.546875 57.0625 -113.519531 57.0625 -108.6875 C 57.0625 -104.0625 56.660156 -100.035156 55.859375 -96.609375 L 64.90625 -96.609375 C 64.101562 -100.035156 63.703125 -104.0625 63.703125 -108.6875 C 63.703125 -113.519531 64.101562 -117.546875 64.90625 -120.765625 L 69.4375 -120.765625 C 68.632812 -124.179688 68.234375 -128.207031 68.234375 -132.84375 C 68.234375 -137.664062 68.632812 -141.691406 69.4375 -144.921875 L 78.5 -144.921875 C 77.6875 -148.335938 77.28125 -152.359375 77.28125 -156.984375 C 77.28125 -161.816406 77.6875 -165.84375 78.5 -169.0625 L 108.6875 -169.0625 C 109.488281 -165.84375 109.890625 -161.816406 109.890625 -156.984375 C 109.890625 -152.359375 109.488281 -148.335938 108.6875 -144.921875 Z M 108.6875 -144.921875 "/></g></g></g></svg>